<svg xmlns="http://www.w3.org/2000/svg" xmlns:xlink="http://www.w3.org/1999/xlink" viewBox="0 0 115.22 108.82"><defs><style>.cls-1{fill:none;}.cls-2{clip-path:url(#clip-path);}.cls-3{fill:url(#Degradado_sin_nombre_37);}.cls-4{clip-path:url(#clip-path-2);}.cls-5{fill:url(#Degradado_sin_nombre_37-2);}.cls-6{clip-path:url(#clip-path-3);}.cls-7{fill:url(#Degradado_sin_nombre_37-3);}.cls-8{clip-path:url(#clip-path-4);}.cls-9{fill:url(#Degradado_sin_nombre_37-4);}.cls-10{clip-path:url(#clip-path-5);}.cls-11{fill:url(#Degradado_sin_nombre_37-5);}.cls-12{clip-path:url(#clip-path-6);}.cls-13{fill:url(#Degradado_sin_nombre_37-6);}.cls-14{clip-path:url(#clip-path-7);}.cls-15{fill:url(#Degradado_sin_nombre_37-7);}.cls-16{clip-path:url(#clip-path-8);}.cls-17{fill:url(#Degradado_sin_nombre_37-8);}.cls-18{clip-path:url(#clip-path-9);}.cls-19{fill:url(#Degradado_sin_nombre_37-9);}.cls-20{clip-path:url(#clip-path-10);}.cls-21{fill:url(#Degradado_sin_nombre_37-10);}.cls-22{clip-path:url(#clip-path-11);}.cls-23{fill:url(#Degradado_sin_nombre_37-11);}.cls-24{clip-path:url(#clip-path-12);}.cls-25{fill:url(#Degradado_sin_nombre_37-12);}.cls-26{clip-path:url(#clip-path-13);}.cls-27{fill:url(#Degradado_sin_nombre_37-13);}.cls-28{clip-path:url(#clip-path-14);}.cls-29{fill:url(#Degradado_sin_nombre_37-14);}.cls-30{clip-path:url(#clip-path-15);}.cls-31{fill:url(#Degradado_sin_nombre_37-15);}.cls-32{clip-path:url(#clip-path-16);}.cls-33{fill:url(#Degradado_sin_nombre_37-16);}.cls-34{clip-path:url(#clip-path-17);}.cls-35{fill:url(#Degradado_sin_nombre_37-17);}.cls-36{clip-path:url(#clip-path-18);}.cls-37{fill:url(#Degradado_sin_nombre_37-18);}.cls-38{clip-path:url(#clip-path-19);}.cls-39{fill:url(#Degradado_sin_nombre_37-19);}.cls-40{clip-path:url(#clip-path-20);}.cls-41{fill:url(#Degradado_sin_nombre_37-20);}.cls-42{clip-path:url(#clip-path-21);}.cls-43{fill:url(#Degradado_sin_nombre_37-21);}.cls-44{clip-path:url(#clip-path-22);}.cls-45{fill:url(#Degradado_sin_nombre_37-22);}.cls-46{clip-path:url(#clip-path-23);}.cls-47{fill:url(#Degradado_sin_nombre_37-23);}.cls-48{clip-path:url(#clip-path-24);}.cls-49{fill:url(#Degradado_sin_nombre_37-24);}.cls-50{clip-path:url(#clip-path-25);}.cls-51{fill:url(#Degradado_sin_nombre_37-25);}.cls-52{clip-path:url(#clip-path-26);}.cls-53{fill:url(#Degradado_sin_nombre_37-26);}.cls-54{clip-path:url(#clip-path-27);}.cls-55{fill:url(#Degradado_sin_nombre_37-27);}.cls-56{clip-path:url(#clip-path-28);}.cls-57{fill:url(#Degradado_sin_nombre_37-28);}.cls-58{clip-path:url(#clip-path-29);}.cls-59{fill:url(#Degradado_sin_nombre_31);}.cls-60{clip-path:url(#clip-path-30);}.cls-61{fill:url(#Degradado_sin_nombre_37-29);}.cls-62{clip-path:url(#clip-path-31);}.cls-63{fill:url(#Degradado_sin_nombre_37-30);}.cls-64{clip-path:url(#clip-path-32);}.cls-65{fill:url(#Degradado_sin_nombre_37-31);}.cls-66{clip-path:url(#clip-path-33);}.cls-67{fill:url(#Degradado_sin_nombre_37-32);}.cls-68{clip-path:url(#clip-path-34);}.cls-69{fill:url(#Degradado_sin_nombre_37-33);}.cls-70{clip-path:url(#clip-path-35);}.cls-71{fill:url(#Degradado_sin_nombre_37-34);}</style><clipPath id="clip-path"><path class="cls-1" d="M2.06,34.09c-.33,3.28-.27,6.54,1.77,9.36.81,1.12,2.07,2.37,3.38,1.73,1.15-.57,1-2.26.75-3.61C7.11,37.71,5.07,34.44,2.84,31a7.14,7.14,0,0,0-.78,3.08"/></clipPath><linearGradient id="Degradado_sin_nombre_37" x1="402.23" y1="624.02" x2="403.23" y2="624.02" gradientTransform="matrix(0, -14.34, -14.34, 0, 8953.62, 5813.44)" gradientUnits="userSpaceOnUse"><stop offset="0" stop-color="#5a4d26"/><stop offset="0.33" stop-color="#866e49"/><stop offset="0.43" stop-color="#ae9560"/><stop offset="0.52" stop-color="#cfb573"/><stop offset="0.61" stop-color="#e3c97f"/><stop offset="0.66" stop-color="#ead083"/><stop offset="0.73" stop-color="#e6cc80"/><stop offset="0.8" stop-color="#d8bf78"/><stop offset="0.88" stop-color="#c3ab6a"/><stop offset="0.96" stop-color="#a48e56"/><stop offset="1" stop-color="#947f4c"/></linearGradient><clipPath id="clip-path-2"><path class="cls-1" d="M107.59,41.06a6,6,0,0,0-.1,4.34c.35.82.72.94,1.54.63a5.73,5.73,0,0,0,3.32-3.46c1.42-3.48,1.13-7,.17-10.86a35.28,35.28,0,0,0-4.93,9.35"/></clipPath><linearGradient id="Degradado_sin_nombre_37-2" x1="402.26" y1="623.59" x2="403.26" y2="623.59" gradientTransform="matrix(0, -14.48, -14.48, 0, 9138.76, 5870.26)" xlink:href="#Degradado_sin_nombre_37"/><clipPath id="clip-path-3"><path class="cls-1" d="M13.51,38.09a7.16,7.16,0,0,0-2.62,5.2c0,1.65.58,2.08,2.11,1.5a7.23,7.23,0,0,0,3.34-2.54,23.13,23.13,0,0,0,3.39-7.34,14,14,0,0,0-6.22,3.18"/></clipPath><linearGradient id="Degradado_sin_nombre_37-3" x1="400.92" y1="642.82" x2="401.92" y2="642.82" gradientTransform="matrix(0, -10.13, -10.13, 0, 6525.27, 4105.22)" xlink:href="#Degradado_sin_nombre_37"/><clipPath id="clip-path-4"><path class="cls-1" d="M97.62,41.08c1.15,2.08,2.55,3.88,5,4.66,1.1.36,1.45-.09,1.68-1a3.37,3.37,0,0,0-.12-1.86C103,38.64,99.52,37,95.45,35.65a25.59,25.59,0,0,0,2.17,5.43"/></clipPath><linearGradient id="Degradado_sin_nombre_37-4" x1="400.96" y1="642.3" x2="401.96" y2="642.3" gradientTransform="matrix(0, -10.21, -10.21, 0, 6657.85, 4139.64)" xlink:href="#Degradado_sin_nombre_37"/><clipPath id="clip-path-5"><path class="cls-1" d="M15.45,9.55a2.24,2.24,0,0,0-.34.49A15.5,15.5,0,0,0,13,16.86a5.3,5.3,0,0,0,.84,3.1c1,1.56,1.6,1.61,2.82.19a6.73,6.73,0,0,0,1.41-3.43A27.6,27.6,0,0,0,18,8.86a1.73,1.73,0,0,0-.42-1.66c-.47.63-1.81,1.4-2.14,2.35"/></clipPath><linearGradient id="Degradado_sin_nombre_37-5" x1="402.15" y1="625.2" x2="403.15" y2="625.2" gradientTransform="matrix(0, -13.97, -13.97, 0, 8752.74, 5641.1)" xlink:href="#Degradado_sin_nombre_37"/><clipPath id="clip-path-6"><path class="cls-1" d="M16.66,87.56c-1,0-2.05.07-3.07,0-.6,0-.08.45.06.68h0a17.8,17.8,0,0,0,7.12,4.28,7.67,7.67,0,0,0,5.52,0c.83-.36,1.81-.72,1.91-1.76s-1-1.09-1.57-1.59c-.13-.43-.49-.57-.87-.72a17.09,17.09,0,0,0-6.49-1c-.87,0-1.74,0-2.61.06"/></clipPath><linearGradient id="Degradado_sin_nombre_37-6" x1="397.33" y1="694.32" x2="398.33" y2="694.32" gradientTransform="matrix(0, -5.61, -5.61, 0, 3917.54, 2323.14)" xlink:href="#Degradado_sin_nombre_37"/><clipPath id="clip-path-7"><path class="cls-1" d="M96.31,88.31c-2.55.08-5.11.08-7.45,1.34h0a2.25,2.25,0,0,0-1.78,2c0,1,1,1.36,1.88,1.75a4.36,4.36,0,0,0,1.82.37c4.33.12,7.72-1.88,10.73-4.75.71-.53.6-.75-.26-.75H99.39l-1.71,0-1.37,0"/></clipPath><linearGradient id="Degradado_sin_nombre_37-7" x1="397.22" y1="695.79" x2="398.22" y2="695.79" gradientTransform="matrix(0, -5.54, -5.54, 0, 3949.18, 2294.35)" xlink:href="#Degradado_sin_nombre_37"/><clipPath id="clip-path-8"><path class="cls-1" d="M5.48,74.86h0a17.91,17.91,0,0,0,4.67,6.47c1.74,1.49,3.71,2.52,6.11,2.08,1.15-.21,2.12-.64,1.29-2.18a5.44,5.44,0,0,0-2.18-2.53A26.72,26.72,0,0,0,5.14,73.87c-.18.51.21.7.34,1"/></clipPath><linearGradient id="Degradado_sin_nombre_37-8" x1="400.69" y1="646.06" x2="401.69" y2="646.06" gradientTransform="matrix(0, -9.64, -9.64, 0, 6237.95, 3945.14)" xlink:href="#Degradado_sin_nombre_37"/><clipPath id="clip-path-9"><path class="cls-1" d="M107.09,65.28A7.28,7.28,0,0,0,105,67.43c-.85,1.31-1.72,2.69-1.08,4.26.33.81,3.24.21,4.72-.94a14.47,14.47,0,0,0,5-7.91c-.19-.67.61-1.13.45-1.93a35.44,35.44,0,0,0-7,4.37"/></clipPath><linearGradient id="Degradado_sin_nombre_37-9" x1="401.33" y1="636.98" x2="402.33" y2="636.98" gradientTransform="matrix(0, -11.15, -11.15, 0, 7209.84, 4546.15)" xlink:href="#Degradado_sin_nombre_37"/><clipPath id="clip-path-10"><path class="cls-1" d="M12.57,50.1A7.61,7.61,0,0,0,11,54.32a2.75,2.75,0,0,0,1.13,2.88c1,.53,1.77-.51,2.42-1.15,1.92-1.91,2.47-4.41,2.82-7,.13-1.17.27-2.34.44-3.89-2.22,1.45-4.07,2.79-5.2,4.92"/></clipPath><linearGradient id="Degradado_sin_nombre_37-10" x1="401.67" y1="632.13" x2="402.67" y2="632.13" gradientTransform="matrix(0, -12.16, -12.16, 0, 7701.65, 4942.08)" xlink:href="#Degradado_sin_nombre_37"/><clipPath id="clip-path-11"><path class="cls-1" d="M1.32,61.18h0a17.67,17.67,0,0,0,2.16,5.17,9.83,9.83,0,0,0,4.76,4.46c1,.41,2.32.74,3.08,0s0-1.92-.27-2.88c-.51-1.76-2.21-2.47-3.25-3.75A33.23,33.23,0,0,0,.93,60c.18.56.29.87.39,1.17"/></clipPath><linearGradient id="Degradado_sin_nombre_37-11" x1="401.36" y1="636.47" x2="402.36" y2="636.47" gradientTransform="matrix(0, -11.24, -11.24, 0, 7160.16, 4582.39)" xlink:href="#Degradado_sin_nombre_37"/><clipPath id="clip-path-12"><path class="cls-1" d="M35.06,84.19h0a13.24,13.24,0,0,0,2.21,6.74A6.12,6.12,0,0,0,41.6,94c1.48.21,2.08-.36,1.8-1.79a6.23,6.23,0,0,0-1.87-3.92,21,21,0,0,0-5.68-4.58,1.8,1.8,0,0,0-.71-.33c-.18,0-.25.2-.08.8"/></clipPath><linearGradient id="Degradado_sin_nombre_37-12" x1="401.15" y1="639.58" x2="402.15" y2="639.58" gradientTransform="matrix(0, -10.67, -10.67, 0, 6861.68, 4373.1)" xlink:href="#Degradado_sin_nombre_37"/><clipPath id="clip-path-13"><path class="cls-1" d="M17.06,27.16A5.29,5.29,0,0,0,14,31c-.68,2.15-.26,2.65,1.89,2.21A7.35,7.35,0,0,0,20,30.93h0a13.24,13.24,0,0,0,3.33-4,2.71,2.71,0,0,0,.92-1.61,15.4,15.4,0,0,0-7.14,1.84"/></clipPath><linearGradient id="Degradado_sin_nombre_37-13" x1="399.73" y1="659.89" x2="400.73" y2="659.89" gradientTransform="matrix(0, -8, -8, 0, 5295.82, 3229.91)" xlink:href="#Degradado_sin_nombre_37"/><clipPath id="clip-path-14"><path class="cls-1" d="M97.91,49.78c.28,2.77,1,5.38,3.08,7.36.56.53,1.28,1.25,2.05,1s1-1.3,1.18-2.15a3.6,3.6,0,0,0,0-1.18,9.51,9.51,0,0,0-2.87-5.66,12.21,12.21,0,0,0-3.86-3c.17,1.39.31,2.52.45,3.64"/></clipPath><linearGradient id="Degradado_sin_nombre_37-14" x1="401.63" y1="632.68" x2="402.63" y2="632.68" gradientTransform="matrix(0, -12.03, -12.03, 0, 7715.14, 4891.76)" xlink:href="#Degradado_sin_nombre_37"/><clipPath id="clip-path-15"><path class="cls-1" d="M19.12,71.81h0a4.68,4.68,0,0,0-.64,2.27c-.22,1.65-.32,3.31.79,4.77.58.76,1.33,1.49,2.22,1.36s1.05-1.15,1.25-1.91a14.87,14.87,0,0,0-.48-8.58,7.09,7.09,0,0,0-1-2.52,12.57,12.57,0,0,0-2.13,4.61"/></clipPath><linearGradient id="Degradado_sin_nombre_37-15" x1="401.92" y1="628.55" x2="402.92" y2="628.55" gradientTransform="matrix(0, -13.03, -13.03, 0, 8212.49, 5318.24)" xlink:href="#Degradado_sin_nombre_37"/><clipPath id="clip-path-16"><path class="cls-1" d="M91.68,27.39a14.7,14.7,0,0,0,4.75,5.25A5.39,5.39,0,0,0,99.77,34c2,.14,2.13-.09,1.56-2.05a5.12,5.12,0,0,0-2.79-3.74A15.49,15.49,0,0,0,91,26.11a1.73,1.73,0,0,0,.64,1.28"/></clipPath><linearGradient id="Degradado_sin_nombre_37-16" x1="399.67" y1="660.72" x2="400.67" y2="660.72" gradientTransform="matrix(0, -7.91, -7.91, 0, 5324.18, 3196.27)" xlink:href="#Degradado_sin_nombre_37"/><clipPath id="clip-path-17"><path class="cls-1" d="M110.87,50.4h0A12.41,12.41,0,0,0,107,57.07c-.37,1.92.39,2.57,2.24,2a6.1,6.1,0,0,0,3.21-2.44,14.49,14.49,0,0,0,2.6-7.84l.22-2.72c-1.7,1.7-3,3-4.35,4.37"/></clipPath><linearGradient id="Degradado_sin_nombre_37-17" x1="401.97" y1="627.83" x2="402.97" y2="627.83" gradientTransform="matrix(0, -13.23, -13.23, 0, 8416.79, 5377.12)" xlink:href="#Degradado_sin_nombre_37"/><clipPath id="clip-path-18"><path class="cls-1" d="M15,60.8h0a9.07,9.07,0,0,0-1.32,5.55c.1,1.23.57,2.63,1.74,2.93s1.95-1,2.43-2c1.54-3.12,1.25-6.41.62-9.69,0-.39-.07-.78-.12-1.43A13.24,13.24,0,0,0,15,60.8"/></clipPath><linearGradient id="Degradado_sin_nombre_37-18" x1="401.96" y1="627.94" x2="402.96" y2="627.94" gradientTransform="matrix(0, -13.19, -13.19, 0, 8301.15, 5372.55)" xlink:href="#Degradado_sin_nombre_37"/><clipPath id="clip-path-19"><path class="cls-1" d="M88.73,77.3a8.21,8.21,0,0,0-2.64,3.45h0a8.58,8.58,0,0,0-2.57,5.06c-.14,1.12-.5,2.62.59,3.15,1.26.62,2.45-.42,3.41-1.36a2,2,0,0,0,.21-.28c2.06-2.88,2.31-6.06,1.58-9.41-.16-.16.07-.86-.18-.86-.07,0-.2.07-.4.25"/></clipPath><linearGradient id="Degradado_sin_nombre_37-19" x1="401.65" y1="632.4" x2="402.65" y2="632.4" gradientTransform="matrix(0, -12.1, -12.1, 0, 7737.07, 4948.14)" xlink:href="#Degradado_sin_nombre_37"/><clipPath id="clip-path-20"><path class="cls-1" d="M0,45.74l.27,2.65h0a14.77,14.77,0,0,0,2,6.46,6.93,6.93,0,0,0,3.56,3.27c.7.28,1.55.58,2.12.12s.47-1.42.3-2.23c-.75-3.41-2.94-5.82-5.45-8C2,47.13,1.2,46.27.43,45.41L0,45.74"/></clipPath><linearGradient id="Degradado_sin_nombre_37-20" x1="401.93" y1="628.42" x2="402.93" y2="628.42" gradientTransform="matrix(0, -13.07, -13.07, 0, 8215.49, 5310.21)" xlink:href="#Degradado_sin_nombre_37"/><clipPath id="clip-path-21"><path class="cls-1" d="M84.78,17.67c-1.06.14-.22.59.08.87h0A15.19,15.19,0,0,0,91,22.92a3.72,3.72,0,0,0,2.13.53,6.19,6.19,0,0,1,.74,0c.85.06,1.72.13,2.23-.92h0a3.45,3.45,0,0,0-1.22-2.75A9.12,9.12,0,0,0,88.2,17.4a26.68,26.68,0,0,0-3.42.27"/></clipPath><linearGradient id="Degradado_sin_nombre_37-21" x1="397.97" y1="685.07" x2="398.97" y2="685.07" gradientTransform="matrix(0, -6.1, -6.1, 0, 4270.67, 2452.24)" xlink:href="#Degradado_sin_nombre_37"/><clipPath id="clip-path-22"><path class="cls-1" d="M26,76.67h0a12.51,12.51,0,0,0-.1,6.08,7.19,7.19,0,0,0,2.71,4.8,2.44,2.44,0,0,0,2.54.62c.86-.43.73-1.47.7-2.31a8.75,8.75,0,0,0-2.3-5.56,16.3,16.3,0,0,0-3-3.84c-.11-.13-.2-.18-.27-.18s-.2.19-.25.39"/></clipPath><linearGradient id="Degradado_sin_nombre_37-22" x1="401.64" y1="632.57" x2="402.64" y2="632.57" gradientTransform="matrix(0, -12.06, -12.06, 0, 7657.32, 4932)" xlink:href="#Degradado_sin_nombre_37"/><clipPath id="clip-path-23"><path class="cls-1" d="M97.43,7.74h0c-.38,3-.92,6-.3,9a6,6,0,0,0,1.94,4.71,1.09,1.09,0,0,0,1.84-.12,5.82,5.82,0,0,0,1-5.3h0a9.47,9.47,0,0,0-2-5.15c-.59-1.26-1.11-2.58-2.52-3.2h0"/></clipPath><linearGradient id="Degradado_sin_nombre_37-23" x1="402.21" y1="624.41" x2="403.21" y2="624.41" gradientTransform="matrix(0, -14.22, -14.22, 0, 8977.63, 5740.7)" xlink:href="#Degradado_sin_nombre_37"/><clipPath id="clip-path-24"><path class="cls-1" d="M109.21,74.93a29,29,0,0,0-6.54,2.71,11.65,11.65,0,0,0-2.77,1.77h0A5,5,0,0,0,97.73,82c-.68,1.39-.4,1.92,1.16,2.21a6.71,6.71,0,0,0,5-1.16c2.77-1.83,4.45-4.53,5.89-7.41.41-.63.3-.81,0-.81a2.44,2.44,0,0,0-.62.14"/></clipPath><linearGradient id="Degradado_sin_nombre_37-24" x1="400.62" y1="647.2" x2="401.62" y2="647.2" gradientTransform="matrix(0, -9.48, -9.48, 0, 6239.3, 3882.24)" xlink:href="#Degradado_sin_nombre_37"/><clipPath id="clip-path-25"><path class="cls-1" d="M104.09,26.71c-.43,2-.74,4,.62,5.87.85,1.74,1.64.74,2.43,0h0c1.69-1.79,1.93-3.87,1.75-6.71s-1.13-4.71-2.59-7.35a36.06,36.06,0,0,0-2.22,8.24"/></clipPath><linearGradient id="Degradado_sin_nombre_37-25" x1="402.39" y1="621.84" x2="403.39" y2="621.84" gradientTransform="matrix(0, -15.07, -15.07, 0, 9478.04, 6097.95)" xlink:href="#Degradado_sin_nombre_37"/><clipPath id="clip-path-26"><path class="cls-1" d="M92.68,71.77a12.23,12.23,0,0,0,0,7.84c.69,1.75,1.33,1.89,2.71.65a4.11,4.11,0,0,0,1.44-2.82,9.42,9.42,0,0,0-.68-4.66,8.08,8.08,0,0,0-1.23-3.13,2.55,2.55,0,0,0-1-1.52,9.75,9.75,0,0,0-1.19,3.64"/></clipPath><linearGradient id="Degradado_sin_nombre_37-26" x1="401.89" y1="628.9" x2="402.89" y2="628.9" gradientTransform="matrix(0, -12.95, -12.95, 0, 8236.6, 5284.37)" xlink:href="#Degradado_sin_nombre_37"/><clipPath id="clip-path-27"><path class="cls-1" d="M20.81,18.53h0a2.58,2.58,0,0,0-1.35,2c-.82,1.38-.23,2,1.18,2A5.51,5.51,0,0,0,24.37,22h0l0,.06a9,9,0,0,0,3.6-2.18,3.17,3.17,0,0,0,1.51-1.31,5.19,5.19,0,0,0,1.61-1.7c-1.3-.13-2.57-.25-3.8-.25a10.16,10.16,0,0,0-6.44,1.91"/></clipPath><linearGradient id="Degradado_sin_nombre_37-27" x1="397.91" y1="685.95" x2="398.91" y2="685.95" gradientTransform="matrix(0, -6.05, -6.05, 0, 4176.07, 2430.74)" xlink:href="#Degradado_sin_nombre_37"/><clipPath id="clip-path-28"><path class="cls-1" d="M96.52,59a24.66,24.66,0,0,0,0,6.81,7.27,7.27,0,0,0,1.89,3.74c1,1.06,1.71.85,2.37-.29,1.48-2.58.74-5-.47-7.43a6.57,6.57,0,0,0-2.43-3.44c-.35-.41-.61-.56-.8-.56-.43,0-.54.74-.58,1.17"/></clipPath><linearGradient id="Degradado_sin_nombre_37-28" x1="401.74" y1="631.03" x2="402.74" y2="631.03" gradientTransform="matrix(0, -12.41, -12.41, 0, 7930.17, 5055.73)" xlink:href="#Degradado_sin_nombre_37"/><clipPath id="clip-path-29"><path class="cls-1" d="M74.15,95.55h0M32,3.94a13.66,13.66,0,0,0-7.35,3.55h0L24,8.17a3.62,3.62,0,0,0-.93,1.59c-.3,1.19-.57,2.39-.85,3.58A48.9,48.9,0,0,0,16,22.78,52,52,0,0,0,8.78,45.51a19.91,19.91,0,0,0,0,7.73h0l0,.64a34.15,34.15,0,0,0,2.05,9.63c1.79,6.37,4.29,12.4,8.52,17.59a32.13,32.13,0,0,0,11.74,9.58c4.56,2.74,9.66,4.31,14.44,6.58h0c.54.31,1.07.66,1.63.93,2.57,1.25,5.14,2.5,7.74,3.68,1,.47,0,.52-.09.76l-5.11,1.52-4.43,1a5.21,5.21,0,0,0-1.66.31c-.68.38-2.17-.15-2,1a2.68,2.68,0,0,0,2.64,2.06,4,4,0,0,0,1.49-.33c3.35-1.14,6.76-2.13,10-3.51a6.51,6.51,0,0,1,5.82.16A47.82,47.82,0,0,0,72.3,108.5c1.55.32,2.65-.4,2.7-1.82s-1.13-1.06-2-1.18l-3.42-.69c-2.61-.65-5.12-1.7-7.81-2.07h0c.41-.89,1.33-1,2.09-1.33a103,103,0,0,0,9.59-4.47,39,39,0,0,0,6.12-3.17c1.17-.58,2.35-1.12,3.5-1.73a36.59,36.59,0,0,0,11-8.24h0a25.87,25.87,0,0,0,4.3-5.48,41.76,41.76,0,0,0,5.34-12.08,14.56,14.56,0,0,1,.48-1.59,31,31,0,0,0,2.21-10.09,25.65,25.65,0,0,0,.34-5c-.45-13.54-5.58-25.23-14-35.61-.06-.11-.11-.23-.17-.34A5.42,5.42,0,0,0,91,8.88c-2-2.46-4.81-3.47-7.77-4.13-.8-.18-1.2,0-.46.79h0A20.71,20.71,0,0,0,87,12a5.53,5.53,0,0,0,4.06,2.1,2.2,2.2,0,0,1,1.33.61c7.26,9.38,12.23,19.73,13.42,31.68h0c0,1.83,0,3.65,0,5.48-.06,5.09-1.41,9.92-2.86,14.74-2.39,6-4.91,11.92-9.3,16.81a47.84,47.84,0,0,1-7.85,6.26c-2,1.2-4.13,2.33-6.19,3.5a45.44,45.44,0,0,0-5.49,2.41c-4.48,1.82-8.92,3.77-13.52,5.31a5.59,5.59,0,0,1-4.12,0c-3.49-1.41-7-2.64-10.57-4-4.88-2.15-9.75-4.32-14.46-6.85a42.94,42.94,0,0,1-11.62-9.37,55.09,55.09,0,0,1-4.59-7.81c-1.44-3-2.4-6.28-3.69-9.38q-1-4.65-2.05-9.28h0C8.27,43.12,11.35,33,16.45,23.36c2.09-3.17,4.06-6.42,6.43-9.4a2,2,0,0,1,1.46-.67A4.38,4.38,0,0,0,27.22,12c2.6-1.79,3.87-4.55,5.22-7.25.27-.4.71-.83.12-.83a3.28,3.28,0,0,0-.52.06"/></clipPath><linearGradient id="Degradado_sin_nombre_31" x1="404.96" y1="585.02" x2="405.96" y2="585.02" gradientTransform="matrix(0, -104.7, -104.7, 0, 61309.27, 42507.36)" gradientUnits="userSpaceOnUse"><stop offset="0" stop-color="#66562e"/><stop offset="0.03" stop-color="#66562e"/><stop offset="0.08" stop-color="#e6cb80"/><stop offset="0.09" stop-color="#cdb470"/><stop offset="0.12" stop-color="#8c7a46"/><stop offset="0.14" stop-color="#5a4d26"/><stop offset="0.5" stop-color="#866e49"/><stop offset="0.56" stop-color="#ae9560"/><stop offset="0.63" stop-color="#cfb573"/><stop offset="0.68" stop-color="#e3c97f"/><stop offset="0.72" stop-color="#ead083"/><stop offset="0.76" stop-color="#e6cc80"/><stop offset="0.81" stop-color="#d8bf78"/><stop offset="0.86" stop-color="#c3ab6a"/><stop offset="0.91" stop-color="#a48e56"/><stop offset="0.94" stop-color="#947f4c"/><stop offset="1" stop-color="#e5ca7f"/><stop offset="1" stop-color="#e5ca7f"/></linearGradient><clipPath id="clip-path-30"><path class="cls-1" d="M30.85,95.87l-2.45.68a4.48,4.48,0,0,0-2.57,1.21,18.78,18.78,0,0,0,9.11,2.45c2.34,0,4.71-.41,6.12-2.73.3-.49.74-1-.21-1.29a7.91,7.91,0,0,0-4.53-1.34,20.43,20.43,0,0,0-5.47,1"/></clipPath><linearGradient id="Degradado_sin_nombre_37-29" x1="396.94" y1="699.82" x2="397.94" y2="699.82" gradientTransform="matrix(0, -5.35, -5.35, 0, 3781.2, 2225.73)" xlink:href="#Degradado_sin_nombre_37"/><clipPath id="clip-path-31"><path class="cls-1" d="M6.35,26.05c-.09,2,0,4,1.62,5.54.67.46,1.06,1.88,2.22.65a4.35,4.35,0,0,0,1.29-3.44,34.11,34.11,0,0,0-2.6-11.11,18.2,18.2,0,0,0-2.53,8.36"/></clipPath><linearGradient id="Degradado_sin_nombre_37-30" x1="402.38" y1="621.93" x2="403.38" y2="621.93" gradientTransform="matrix(0, -15.04, -15.04, 0, 9360.54, 6083.09)" xlink:href="#Degradado_sin_nombre_37"/><clipPath id="clip-path-32"><path class="cls-1" d="M79.49,84.47a22.18,22.18,0,0,0-5,3.82A4,4,0,0,0,73,90h0c-.91,1.4-1.77,2.93-.86,4.52.52.92,2.94.17,4.56-1.29a6.64,6.64,0,0,0,.9-1,14.22,14.22,0,0,0,2.56-7.3c.18-.56.12-.75-.06-.75a1.6,1.6,0,0,0-.64.3"/></clipPath><linearGradient id="Degradado_sin_nombre_37-31" x1="401.18" y1="639.1" x2="402.18" y2="639.1" gradientTransform="matrix(0, -10.76, -10.76, 0, 6950.14, 4410.13)" xlink:href="#Degradado_sin_nombre_37"/><clipPath id="clip-path-33"><path class="cls-1" d="M76.22,96.24l-2.06,1c-.55.29-.29.64-.08,1a5.4,5.4,0,0,0,3.39,2.42c4.27,1,8.14-.14,12-2.12a2.84,2.84,0,0,0-2-.9c-1.25,0-2.18-1.09-3.45-1a20.15,20.15,0,0,0-4.94-.85,7.77,7.77,0,0,0-2.88.52"/></clipPath><linearGradient id="Degradado_sin_nombre_37-32" x1="396.84" y1="701.34" x2="397.84" y2="701.34" gradientTransform="matrix(0, -5.29, -5.29, 0, 3792.03, 2200.49)" xlink:href="#Degradado_sin_nombre_37"/><clipPath id="clip-path-34"><path class="cls-1" d="M46.51,41.25a7.5,7.5,0,0,1,5.54-4.61,12.59,12.59,0,0,1,7.27.75,12.71,12.71,0,0,1,5.76,4,3.65,3.65,0,0,1,.24.31c-.24.09-.48.16-.71.23a7.91,7.91,0,0,1-2.65.33,18.75,18.75,0,0,1-5.24-1.15,17.58,17.58,0,0,0-4.67-1,9,9,0,0,0-1.16,0,11.77,11.77,0,0,0-4.42,1.28s0-.08,0-.12m5.54-14.37c0-4.68.4-6.11,3.89-6.51h2.62c9.39,0,11.55,12.34,7.6,19.42a10.72,10.72,0,0,0-5.89-4.93,10.59,10.59,0,0,0-8.22,0ZM39.76,19.66c3.57.47,6,1.19,6,7.69V43.49a10.93,10.93,0,0,0-.15,1.39l.15-.11c.12-.11.25-.21.39-.32a10,10,0,0,1,5-1.94,7.73,7.73,0,0,1,1,0,15.92,15.92,0,0,1,3.91.93A26.17,26.17,0,0,0,60,44.51a17.06,17.06,0,0,0,1.84.19,10.16,10.16,0,0,0,3.21-.36c.44-.12.89-.27,1.36-.45l.86-.36a.3.3,0,0,0,0-.1c11.8-5.94,8.91-23.77-8.79-23.77Z"/></clipPath><linearGradient id="Degradado_sin_nombre_37-33" x1="393.86" y1="565.64" x2="394.86" y2="565.64" gradientTransform="matrix(0, 36.98, 36.98, 0, -20859.88, -14556.86)" xlink:href="#Degradado_sin_nombre_37"/><clipPath id="clip-path-35"><path class="cls-1" d="M66.58,48.81a9.06,9.06,0,0,0,.29-.88C75.39,55,73,74.47,59.9,74.47h-.71c-6.82,0-7.14-.79-7.14-6.66V54.89l.58.24a12,12,0,0,0,4.23.81,10.48,10.48,0,0,0,9.72-7.13m-13,3.79c-.54-.21-1-.43-1.53-.67a11.76,11.76,0,0,1-4.55-3.74A6.12,6.12,0,0,1,51,46.66a6.81,6.81,0,0,1,1,0,15.6,15.6,0,0,1,3.87.92,21,21,0,0,0,5.89,1.27,10.88,10.88,0,0,0,4.82-.91,7.36,7.36,0,0,1-.24.8c-1,2.75-3.83,4.85-7.8,4.85a14.15,14.15,0,0,1-5-1m-2.74-8.36A8.24,8.24,0,0,0,46.41,46a8,8,0,0,0-.7.58l-.09.08c0,.19.05.38.09.58V67.49c0,6.51-2.38,7.22-6,7.69H60.62c21.71,0,23.9-24.58,6.69-29.62l-.82-.22a12.4,12.4,0,0,1-2.43.89,7.87,7.87,0,0,1-2.15.19,17.85,17.85,0,0,1-5-1.06l-.26-.09c-.67-.22-1.35-.44-2.05-.63a12.54,12.54,0,0,0-2.57-.41l-.55,0-.66,0"/></clipPath><linearGradient id="Degradado_sin_nombre_37-34" x1="393.89" y1="565.75" x2="394.89" y2="565.75" gradientTransform="matrix(0, 37.06, 37.06, 0, -20905.51, -14559.27)" xlink:href="#Degradado_sin_nombre_37"/></defs><title>Recurso 4</title><g id="Capa_2" data-name="Capa 2"><g id="Capa_1-2" data-name="Capa 1"><g class="cls-2"><rect class="cls-3" x="1.73" y="31.01" width="6.63" height="14.81"/></g><g class="cls-4"><rect class="cls-5" x="106.86" y="31.71" width="6.9" height="14.63"/></g><g class="cls-6"><rect class="cls-7" x="10.86" y="34.91" width="8.87" height="10.46"/></g><g class="cls-8"><rect class="cls-9" x="95.45" y="35.65" width="9.01" height="10.44"/></g><g class="cls-10"><rect class="cls-11" x="12.97" y="7.2" width="5.58" height="14.37"/></g><g class="cls-12"><rect class="cls-13" x="12.99" y="87.5" width="15.31" height="5.9"/></g><g class="cls-14"><rect class="cls-15" x="87.07" y="88.29" width="15.15" height="5.65"/></g><g class="cls-16"><rect class="cls-17" x="4.96" y="73.87" width="13.41" height="9.97"/></g><g class="cls-18"><rect class="cls-19" x="103.24" y="60.91" width="10.97" height="11.58"/></g><g class="cls-20"><rect class="cls-21" x="10.79" y="45.18" width="6.98" height="12.54"/></g><g class="cls-22"><rect class="cls-23" x="0.93" y="60.01" width="11.16" height="11.54"/></g><g class="cls-24"><rect class="cls-25" x="34.89" y="83.39" width="8.79" height="10.83"/></g><g class="cls-26"><rect class="cls-27" x="13.27" y="25.32" width="10.93" height="8.29"/></g><g class="cls-28"><rect class="cls-29" x="97.46" y="46.14" width="6.83" height="12.25"/></g><g class="cls-30"><rect class="cls-31" x="18.16" y="67.2" width="5.34" height="13.15"/></g><g class="cls-32"><rect class="cls-33" x="91.02" y="26.11" width="10.87" height="8.02"/></g><g class="cls-34"><rect class="cls-35" x="106.58" y="46.03" width="8.64" height="13.62"/></g><g class="cls-36"><rect class="cls-37" x="13.51" y="56.13" width="5.86" height="13.46"/></g><g class="cls-38"><rect class="cls-39" x="83.02" y="77.05" width="7.02" height="12.53"/></g><g class="cls-40"><rect class="cls-41" y="45.41" width="8.53" height="13.29"/></g><g class="cls-42"><rect class="cls-43" x="83.72" y="17.4" width="12.35" height="6.2"/></g><g class="cls-44"><rect class="cls-45" x="25.3" y="76.28" width="6.66" height="12.33"/></g><g class="cls-46"><rect class="cls-47" x="96.5" y="7.73" width="5.86" height="14.39"/></g><g class="cls-48"><rect class="cls-49" x="97.05" y="74.79" width="13.18" height="9.71"/></g><g class="cls-50"><rect class="cls-51" x="103.35" y="18.47" width="5.73" height="15.85"/></g><g class="cls-52"><rect class="cls-53" x="91.66" y="68.13" width="5.28" height="13.37"/></g><g class="cls-54"><rect class="cls-55" x="18.64" y="16.62" width="12.41" height="6.17"/></g><g class="cls-56"><rect class="cls-57" x="96.11" y="57.79" width="6.17" height="12.78"/></g><g class="cls-58"><rect class="cls-59" x="8.27" y="3.88" width="98.53" height="104.95"/></g><g class="cls-60"><rect class="cls-61" x="25.83" y="94.85" width="15.97" height="5.38"/></g><g class="cls-62"><rect class="cls-63" x="6.26" y="17.69" width="5.27" height="15.78"/></g><g class="cls-64"><rect class="cls-65" x="71.26" y="84.17" width="9.1" height="11.28"/></g><g class="cls-66"><rect class="cls-67" x="73.61" y="95.72" width="15.85" height="5.93"/></g><g class="cls-68"><rect class="cls-69" x="36.6" y="9.45" width="45.64" height="45.64" transform="translate(-5.42 51.46) rotate(-45)"/></g><g class="cls-70"><rect class="cls-71" x="35.36" y="32.92" width="53.55" height="53.55" transform="translate(-24.01 61.42) rotate(-45)"/></g></g></g></svg>